<?xml version="1.0" standalone="no"?>
<!DOCTYPE svg PUBLIC "-//W3C//DTD SVG 20010904//EN"
 "http://www.w3.org/TR/2001/REC-SVG-20010904/DTD/svg10.dtd">
<svg version="1.0" xmlns="http://www.w3.org/2000/svg"
 width="260.000000pt" height="260.000000pt" viewBox="0 0 260.000000 260.000000"
 preserveAspectRatio="xMidYMid meet">
<metadata>
Created by potrace 1.14, written by Peter Selinger 2001-2017
</metadata>
<g transform="translate(0.000000,260.000000) scale(0.100000,-0.100000)"
fill="#000000" stroke="none">
<path d="M1163 2353 c-13 -13 -23 -28 -23 -33 0 -5 -8 -6 -17 -3 -12 5 -15 2
-10 -10 3 -9 3 -16 -1 -14 -4 1 -7 -1 -7 -5 0 -12 -43 -39 -56 -36 -7 2 -12
-10 -13 -30 0 -17 4 -32 9 -32 6 0 4 -4 -3 -9 -8 -4 -14 -12 -14 -16 0 -4 6
-12 14 -16 7 -5 8 -9 2 -9 -6 0 -10 -11 -9 -24 2 -18 -1 -23 -11 -19 -10 4
-12 0 -8 -12 6 -15 4 -16 -14 -6 -18 9 -19 8 -14 -11 3 -14 1 -19 -6 -14 -6 3
-14 1 -18 -6 -4 -7 -4 -10 0 -6 11 9 35 -15 28 -27 -3 -5 3 -3 13 5 10 8 16
10 12 4 -4 -7 0 -14 8 -18 8 -3 12 -12 9 -21 -3 -8 -1 -15 5 -15 7 0 7 -8 1
-26 -7 -19 -7 -23 2 -18 7 5 9 2 5 -9 -4 -11 -2 -14 9 -10 7 3 14 0 14 -6 0
-6 5 -11 11 -11 5 0 7 5 3 12 -4 7 -3 8 5 4 6 -4 9 -12 6 -17 -8 -13 17 -44
35 -44 8 0 14 -8 14 -17 -1 -10 8 -19 22 -22 13 -4 24 -13 24 -22 0 -8 5 -12
10 -9 10 6 15 -9 10 -30 -1 -5 2 -7 6 -3 4 4 13 0 21 -10 8 -9 12 -11 8 -5 -4
9 -1 11 10 7 9 -4 14 -15 12 -30 -3 -25 -17 -45 -17 -24 0 9 -3 10 -13 1 -8
-6 -18 -7 -22 -3 -5 4 -5 1 -1 -6 4 -7 13 -10 19 -6 7 3 3 -2 -8 -11 -11 -9
-21 -20 -21 -25 -3 -21 -4 -22 -17 -11 -8 6 -16 8 -19 5 -3 -3 -8 6 -12 20 -6
24 -66 56 -66 35 0 -5 -4 -8 -9 -7 -5 2 -26 -12 -45 -30 -20 -18 -40 -31 -45
-28 -5 3 -11 -3 -14 -14 -3 -13 -1 -18 6 -14 7 3 3 -1 -7 -10 -10 -8 -23 -13
-29 -9 -6 4 -7 1 -2 -7 6 -10 3 -12 -12 -8 -19 5 -20 3 -13 -23 6 -20 5 -29
-3 -29 -8 0 -7 -3 2 -9 10 -6 10 -10 1 -16 -6 -4 -9 -13 -7 -20 4 -8 -4 -12
-21 -11 -21 1 -27 -4 -27 -19 0 -11 -4 -25 -8 -32 -4 -6 -2 -15 4 -19 8 -5 9
-3 4 6 -5 8 -4 11 3 6 14 -8 5 -33 -14 -40 -9 -3 -13 -10 -10 -15 3 -5 -4 -7
-15 -4 -16 4 -20 2 -17 -8 3 -8 -2 -20 -11 -27 -10 -9 -11 -11 -2 -6 11 5 13
3 8 -9 -3 -9 -2 -19 3 -22 6 -4 7 -13 1 -23 -4 -9 -6 -23 -3 -31 2 -7 -2 -17
-9 -22 -11 -7 -11 -9 2 -9 24 0 10 -59 -19 -78 -21 -14 -22 -13 -16 4 4 15 3
16 -4 4 -14 -22 -25 -63 -16 -57 5 3 9 -8 9 -24 0 -19 -5 -29 -14 -29 -11 0
-9 -4 5 -15 12 -9 14 -14 6 -15 -7 0 -11 -3 -9 -7 3 -5 -5 -17 -16 -28 -11
-11 -17 -15 -14 -10 3 6 -3 11 -13 11 -10 0 -16 -5 -12 -10 3 -6 5 -26 3 -44
-2 -26 1 -33 11 -27 7 3 5 0 -6 -9 -10 -8 -15 -19 -11 -25 3 -7 0 -8 -9 -5 -9
3 -13 11 -9 18 4 7 1 7 -9 -1 -8 -7 -19 -9 -23 -5 -5 4 -5 1 -1 -6 4 -7 13
-10 19 -6 7 3 4 -1 -7 -10 -10 -8 -15 -20 -11 -26 4 -6 1 -9 -7 -8 -7 2 -12
-2 -11 -8 1 -6 -4 -11 -12 -11 -8 0 -12 4 -9 9 6 10 6 10 -34 -1 -23 -7 -30
-7 -26 1 5 8 1 9 -11 5 -9 -4 -24 -2 -32 5 -12 10 -17 9 -27 -4 -11 -15 -13
-15 -24 0 -7 9 -10 12 -8 6 4 -7 -11 -11 -44 -11 -29 1 -46 5 -43 10 4 6 1 7
-8 1 -23 -14 -49 -15 -49 -1 0 9 -3 8 -9 -2 -6 -10 -13 -10 -29 -2 -15 8 -21
8 -25 -2 -3 -9 -8 -8 -22 3 -13 10 -16 11 -11 2 6 -10 3 -13 -10 -11 -11 2
-24 0 -31 -4 -6 -4 -15 -2 -19 4 -5 8 -3 9 6 4 9 -6 11 -4 5 5 -6 10 -11 9
-22 -5 -7 -11 -13 -14 -13 -7 0 6 -7 9 -17 5 -12 -5 -14 -3 -9 8 4 8 0 5 -8
-5 -9 -11 -16 -24 -16 -29 0 -4 -6 -5 -12 -1 -9 5 -9 2 1 -9 7 -9 11 -18 7
-18 -23 -5 -32 -4 -43 3 -8 7 -11 -17 -10 -89 2 -82 5 -98 18 -98 24 0 50 -30
37 -43 -8 -8 -5 -9 11 -5 13 3 21 1 21 -6 0 -7 5 -9 12 -5 6 4 8 3 4 -4 -3 -6
-2 -13 4 -17 6 -4 8 -10 6 -14 -3 -4 4 -12 14 -19 13 -8 21 -8 25 -1 5 6 12 6
23 -3 13 -11 14 -11 7 2 -8 13 -7 13 8 1 16 -13 22 -8 17 14 -1 6 2 6 7 2 8
-9 10 -14 12 -47 1 -13 8 -20 22 -20 13 0 18 -4 13 -12 -5 -7 -3 -8 7 -2 21
13 59 12 59 -1 0 -7 10 -20 22 -29 13 -9 17 -14 9 -10 -9 4 -12 3 -8 -4 4 -5
25 -8 48 -6 29 3 38 0 34 -9 -4 -6 0 -4 7 5 12 14 15 15 24 2 5 -10 16 -13 26
-9 10 4 15 11 12 16 -3 5 2 6 10 3 9 -3 16 -10 16 -16 0 -5 5 -6 10 -3 6 4 7
11 4 17 -4 6 4 3 18 -8 19 -14 23 -22 16 -31 -7 -9 -7 -13 1 -13 7 0 10 -4 7
-9 -3 -4 6 -6 20 -3 16 3 30 -1 35 -9 7 -11 9 -10 9 5 0 15 3 17 12 8 8 -8 17
-8 31 -1 11 6 17 7 14 2 -4 -6 17 -8 50 -6 32 2 62 -2 70 -8 11 -9 12 -8 7 5
-8 20 0 21 20 0 15 -14 16 -14 16 1 0 16 2 16 25 1 21 -14 24 -14 19 -1 -8 19
0 19 20 -1 12 -12 16 -12 16 -2 0 8 9 14 19 14 11 0 17 -4 14 -9 -2 -4 7 -5
22 -1 18 4 30 2 36 -7 7 -11 9 -10 9 4 0 12 4 16 12 10 17 -10 49 -10 72 0 13
6 16 6 11 -2 -5 -8 1 -10 19 -5 16 4 32 1 41 -6 13 -11 14 -10 9 5 -6 15 -4
16 13 7 22 -12 49 0 39 17 -4 6 -2 11 4 11 6 0 9 4 6 9 -3 5 1 12 10 15 21 8
64 -40 57 -63 -4 -14 -3 -14 6 -1 8 12 14 13 30 3 17 -11 19 -10 15 2 -8 19 1
19 20 -1 14 -13 16 -13 16 -1 0 17 40 11 52 -7 5 -7 8 -3 8 8 0 15 3 17 12 8
8 -8 17 -8 31 -1 14 8 18 8 12 0 -5 -8 1 -10 20 -5 18 4 30 2 36 -7 7 -11 9
-10 9 5 0 15 3 17 12 8 8 -8 17 -8 31 -1 11 6 17 7 14 2 -4 -6 17 -8 50 -6 32
2 62 -2 70 -8 11 -9 12 -8 7 5 -8 20 0 21 20 0 15 -14 16 -14 16 1 0 16 2 16
25 1 21 -14 24 -14 19 -1 -8 19 0 19 20 -1 12 -12 16 -12 16 -2 0 8 9 14 19
14 11 0 17 -4 15 -8 -3 -4 9 -5 25 -2 18 4 37 2 45 -5 10 -8 16 -9 21 -1 3 5
15 10 26 10 10 0 18 3 17 8 0 4 4 18 10 32 6 14 11 18 12 10 0 -13 2 -13 9 -1
8 13 12 13 27 0 10 -8 15 -9 11 -2 -5 8 2 11 22 11 19 -1 28 -5 25 -12 -3 -6
1 -3 9 6 10 13 16 15 25 6 9 -9 12 -7 12 8 0 16 2 17 10 4 7 -11 10 -6 10 20
0 26 3 31 10 20 8 -12 10 -12 10 -1 0 8 3 11 7 8 3 -4 12 -2 19 4 8 7 14 6 20
-2 4 -8 3 -9 -4 -5 -7 4 -12 2 -12 -3 0 -15 11 -13 34 4 10 8 23 12 28 8 6 -3
4 5 -3 18 -12 23 -11 23 6 9 10 -8 16 -10 13 -5 -4 6 -2 17 3 25 8 13 10 13
19 0 6 -10 10 -11 10 -2 0 14 21 12 32 -3 5 -6 8 -5 8 2 0 7 6 10 13 7 8 -3
14 2 14 10 0 8 -5 12 -11 9 -6 -4 -5 1 3 10 7 9 18 14 24 10 7 -4 8 0 3 13 -4
10 -4 15 0 12 9 -10 46 11 39 21 -2 5 7 17 21 26 15 9 23 12 20 6 -4 -6 -2
-11 4 -11 7 0 10 30 8 93 -3 92 -3 92 -28 89 -20 -2 -22 -1 -10 7 13 9 12 11
-3 11 -10 0 -15 5 -12 10 9 14 -14 42 -27 34 -6 -4 -14 0 -19 7 -7 11 -9 10
-9 -4 0 -10 -5 -15 -10 -12 -6 4 -8 12 -4 18 3 7 -1 4 -8 -5 -13 -15 -15 -15
-26 0 -7 9 -10 12 -7 6 6 -14 -82 -14 -104 0 -9 6 -12 5 -8 -1 4 -6 -4 -10
-18 -10 -16 0 -22 4 -18 11 4 7 1 6 -8 -1 -12 -10 -18 -10 -27 -1 -9 9 -15 9
-24 0 -14 -14 -42 -16 -33 -2 3 6 -1 7 -9 4 -9 -3 -14 -9 -12 -13 2 -3 -11 -6
-29 -6 -28 0 -31 2 -22 14 10 12 9 12 -11 2 -13 -7 -28 -10 -35 -8 -7 2 -22 1
-34 -4 -15 -5 -25 -3 -34 7 -8 10 -15 11 -24 4 -9 -8 -14 -4 -17 14 -3 14 -1
29 4 34 6 6 6 12 -1 16 -6 4 -11 12 -11 17 0 6 5 7 12 3 6 -4 8 -3 4 4 -3 6
-16 9 -27 7 -18 -4 -19 -2 -8 13 7 9 10 14 5 10 -5 -4 -18 -2 -29 3 -16 9 -17
13 -6 20 11 7 11 9 -3 9 -9 0 -20 5 -24 12 -5 7 -3 8 6 3 9 -5 11 -4 6 3 -5 8
-13 9 -25 3 -15 -8 -17 -4 -16 35 0 24 -4 44 -10 44 -6 0 -5 3 1 8 16 10 12
72 -4 72 -7 0 -10 5 -6 11 4 7 -1 7 -16 -1 -12 -6 -24 -9 -28 -6 -3 3 0 6 8 6
9 0 9 4 2 13 -5 6 -9 23 -8 37 1 14 -1 35 -5 47 -7 18 -5 21 9 16 14 -5 15 -4
6 8 -16 20 -16 81 -1 73 7 -3 3 2 -7 10 -11 9 -16 16 -10 16 5 0 1 5 -9 11 -9
5 -22 7 -29 3 -6 -4 -8 -3 -5 2 3 6 2 16 -3 24 -5 9 -4 20 3 29 9 11 9 13 0 8
-8 -5 -11 0 -10 13 1 11 5 20 9 20 4 0 8 5 8 11 0 5 -6 7 -12 3 -8 -5 -7 0 2
11 12 15 12 17 1 10 -11 -6 -13 -4 -8 8 3 10 2 17 -4 17 -6 0 -7 5 -4 10 3 6
-1 10 -10 10 -10 0 -13 -5 -9 -12 4 -7 3 -8 -4 -4 -7 4 -12 14 -12 22 0 8 -5
14 -11 14 -6 0 -9 7 -6 14 4 11 1 13 -10 9 -12 -5 -14 -3 -8 7 5 7 4 11 -1 7
-13 -8 -40 14 -48 40 -4 14 -12 20 -22 16 -8 -3 -14 1 -14 11 0 9 -5 16 -11
16 -5 0 -7 5 -4 10 3 6 -1 10 -10 10 -9 0 -13 5 -10 10 8 13 -17 8 -27 -5 -5
-6 -12 -4 -18 5 -7 11 -10 11 -10 2 0 -7 -5 -10 -11 -7 -6 4 -13 -2 -16 -14
-3 -12 -10 -21 -15 -21 -5 0 -7 -4 -4 -9 8 -12 -17 -21 -32 -12 -6 3 -13 25
-16 48 -5 43 16 77 45 71 7 -2 14 3 15 10 1 6 2 17 3 23 0 5 6 7 13 3 7 -5 9
-2 5 9 -4 12 -1 15 17 11 20 -3 23 0 21 21 -2 13 0 24 3 24 21 -3 32 2 27 12
-4 6 0 9 10 7 11 -2 19 4 20 15 2 9 -1 17 -6 17 -6 0 -7 5 -4 10 4 6 11 8 16
5 14 -9 11 2 -7 19 -9 9 -11 16 -4 16 6 0 8 4 5 10 -3 5 0 8 7 5 7 -3 24 5 38
16 14 11 19 17 11 13 -10 -5 -12 -3 -5 7 12 19 12 93 0 101 -6 4 -5 12 3 22 9
11 10 16 2 16 -6 0 -11 5 -11 11 0 5 4 8 8 5 13 -8 7 33 -7 47 -15 15 -33 16
-44 2 -5 -6 -6 -2 -3 9 4 11 1 23 -6 28 -10 6 -10 10 1 17 7 5 10 14 7 20 -4
6 -1 11 6 11 10 0 9 3 -2 9 -8 6 -18 7 -24 4 -5 -4 -7 1 -3 10 6 15 3 16 -38
7 -23 -5 -36 1 -29 13 5 7 0 6 -11 -3 -11 -9 -16 -10 -11 -2 4 6 3 12 -3 12
-6 0 -7 7 -4 17 5 12 3 14 -7 8 -9 -6 -12 -4 -8 6 4 10 -3 14 -28 15 -18 0
-31 -3 -28 -8 3 -4 -6 -4 -20 2 -19 7 -26 6 -26 -2 0 -9 -3 -9 -12 0 -16 16
-31 15 -22 0 5 -9 2 -9 -9 1 -14 11 -17 11 -17 0 0 -10 -3 -10 -12 -1 -16 16
-31 15 -22 0 5 -9 2 -9 -9 1 -13 10 -17 10 -17 1 0 -8 -4 -9 -12 -3 -9 6 -20
2 -35 -14z m61 -103 c18 -7 26 -6 26 1 0 7 6 6 17 -2 9 -8 14 -9 10 -3 -4 8 5
11 27 10 19 0 32 -4 30 -7 -2 -3 3 -6 11 -6 8 0 12 4 9 9 -3 4 0 8 5 8 6 0 11
-6 12 -12 0 -10 2 -10 6 0 2 6 9 12 14 12 6 0 7 -6 3 -12 -6 -10 -5 -10 7 -1
19 15 44 0 36 -21 -4 -10 -1 -16 8 -16 7 0 17 -5 21 -12 5 -7 3 -8 -6 -3 -9 5
-11 4 -6 -4 5 -8 12 -9 20 -2 19 16 41 -26 24 -47 -11 -13 -11 -14 2 -7 13 8
13 7 1 -8 -7 -9 -9 -17 -3 -17 5 0 8 -15 6 -32 -1 -18 -3 -33 -4 -33 -1 0 -3
-8 -5 -18 -3 -14 1 -17 13 -13 13 5 12 2 -2 -9 -11 -8 -14 -15 -7 -15 7 0 9
-5 6 -10 -4 -6 -11 -8 -16 -5 -5 4 -9 2 -9 -4 0 -6 -8 -7 -17 -4 -13 5 -15 2
-10 -11 6 -14 3 -17 -8 -12 -13 5 -14 2 -4 -15 7 -13 7 -19 1 -15 -6 3 -13 2
-17 -4 -3 -5 -11 -10 -16 -10 -6 0 -7 5 -4 10 3 6 4 10 1 10 -10 0 -35 -58
-28 -65 4 -5 -1 -6 -10 -2 -10 3 -19 0 -22 -9 -4 -9 -11 -12 -18 -8 -10 6 -10
5 0 -8 10 -12 9 -18 -3 -28 -12 -10 -15 -10 -16 1 0 8 -4 5 -9 -6 -8 -18 -9
-18 -9 -2 -1 10 -5 16 -10 13 -5 -3 -12 1 -15 10 -3 8 -2 12 4 9 6 -3 7 1 4 9
-3 9 -9 14 -13 11 -12 -7 -52 25 -46 36 4 5 -2 9 -12 9 -14 0 -15 2 -5 9 10 6
4 10 -20 15 -26 5 -30 9 -18 16 10 6 11 10 3 10 -7 0 -13 7 -13 16 0 8 -4 13
-8 10 -5 -3 -19 2 -31 10 -17 12 -19 19 -11 29 8 10 8 15 0 20 -8 5 -6 14 7
28 10 11 13 17 6 14 -6 -4 -14 -3 -18 3 -3 5 0 10 7 10 9 0 9 3 -2 10 -10 6
-11 10 -2 10 6 0 11 3 11 8 -4 24 3 34 21 29 13 -3 18 -1 13 6 -4 6 0 8 9 5
16 -7 18 17 4 41 -5 8 -3 17 5 22 11 7 11 9 1 9 -10 0 -10 3 0 14 7 8 16 12
21 9 4 -2 7 1 7 6 0 13 2 13 34 1z m-137 -693 c14 17 14 17 8 -1 -6 -20 -6
-20 16 0 22 19 22 19 16 -1 -7 -20 -7 -20 8 -1 8 11 15 15 15 9 0 -6 13 -10
30 -9 28 2 46 -14 32 -29 -4 -4 -8 -11 -8 -16 -1 -5 -2 -12 -3 -15 0 -4 -8 -1
-16 6 -17 14 -26 0 -29 -45 0 -14 -4 -25 -7 -25 -4 0 -6 -8 -5 -17 0 -10 -5
-18 -13 -18 -7 0 -20 -10 -28 -22 -13 -19 -13 -23 -2 -23 9 -1 8 -4 -4 -11
-18 -10 -18 -11 0 -32 10 -11 13 -17 7 -14 -7 4 -14 0 -17 -8 -4 -8 -15 -12
-27 -10 -18 3 -20 1 -10 -10 8 -10 8 -15 -1 -21 -8 -5 -10 -3 -4 7 7 12 5 12
-6 1 -12 -11 -12 -14 1 -22 8 -5 10 -10 4 -10 -6 0 -11 -7 -11 -15 0 -8 4 -15
9 -15 5 0 2 -8 -8 -17 -17 -17 -17 -18 0 -21 17 -4 16 -5 -1 -25 -10 -11 -13
-17 -6 -14 17 11 21 -24 5 -55 -15 -31 -28 -38 -18 -10 4 12 1 11 -13 -5 -10
-12 -21 -19 -25 -16 -3 4 -6 1 -6 -5 0 -7 5 -12 11 -12 8 0 8 -5 -1 -15 -12
-14 -7 -20 14 -16 5 1 3 -5 -4 -14 -16 -19 -21 -55 -8 -55 4 0 8 -5 8 -11 0
-5 -4 -7 -10 -4 -6 3 -7 -1 -4 -10 4 -9 13 -14 21 -11 9 4 11 2 7 -6 -5 -7 -2
-9 9 -5 19 7 32 -23 22 -53 -4 -13 -2 -20 7 -20 9 0 9 -3 2 -8 -14 -9 -14 -42
0 -42 6 0 4 -5 -4 -10 -13 -9 -13 -11 0 -20 8 -5 11 -10 5 -10 -5 0 -11 -11
-11 -25 -1 -14 2 -22 7 -19 5 3 9 -2 9 -11 0 -9 5 -13 10 -10 6 3 10 1 10 -6
0 -7 3 -10 6 -6 12 12 33 -17 22 -30 -7 -9 -7 -13 1 -13 8 0 9 -5 1 -19 -7
-14 -6 -21 3 -24 7 -3 5 -6 -5 -6 -10 -1 -18 -7 -18 -13 0 -10 -3 -9 -9 1 -5
8 -14 10 -22 6 -8 -5 -11 -4 -6 0 4 5 -1 18 -10 29 -18 20 -17 20 2 6 20 -15
20 -15 0 8 -18 22 -20 22 -32 6 -12 -17 -13 -17 -13 2 0 14 -2 16 -9 5 -7 -11
-9 -11 -13 0 -4 12 -8 12 -21 1 -13 -11 -15 -10 -10 10 4 19 3 20 -7 8 -9 -12
-10 -11 -8 7 2 12 -1 23 -7 23 -5 1 -16 7 -24 13 -12 9 -13 9 -7 0 4 -7 2 -13
-3 -13 -6 0 -11 6 -11 13 0 9 -3 8 -9 -2 -6 -9 -10 -10 -16 -2 -5 9 -11 9 -23
-1 -13 -11 -15 -11 -10 3 4 9 1 22 -5 29 -9 10 -9 11 2 5 9 -5 12 -4 7 3 -4 7
-16 12 -27 12 -13 0 -18 4 -13 12 5 7 2 9 -9 5 -11 -4 -15 0 -15 11 0 9 0 22
-2 27 -7 27 2 45 25 51 14 3 25 10 25 16 0 5 6 6 13 2 8 -5 8 -2 -2 9 -12 15
-9 21 12 18 4 0 6 2 6 6 -3 20 2 24 16 13 13 -11 14 -10 8 5 -5 14 -3 17 10
12 9 -3 19 -1 23 5 4 6 3 8 -3 5 -6 -4 -13 4 -15 18 -3 14 -2 25 2 25 11 0 -1
43 -14 52 -7 5 -5 8 5 8 11 0 15 8 14 25 -3 27 4 31 23 15 6 -6 10 -7 7 -3 -3
3 4 13 15 20 16 11 18 18 10 34 -8 14 -7 19 2 20 10 0 10 2 -1 6 -11 5 -11 7
0 14 10 6 11 9 2 9 -7 0 -13 5 -13 11 0 5 4 8 8 5 9 -5 7 52 -2 61 -3 4 0 13
7 21 9 12 9 16 0 19 -10 4 -10 10 -2 25 8 15 8 19 0 14 -16 -10 -13 3 4 21 8
8 13 18 10 23 -3 4 4 6 15 3 12 -3 20 0 20 6 0 7 4 10 8 7 5 -3 9 1 9 9 0 8
-5 11 -10 8 -6 -4 -8 0 -4 9 3 9 0 21 -6 28 -9 10 -9 11 2 5 10 -6 13 -4 9 6
-7 18 18 44 25 26 3 -7 6 -4 6 6 1 15 11 21 32 19 3 -1 6 5 6 13 0 8 -5 11
-10 8 -6 -4 -8 3 -5 15 4 13 1 22 -5 22 -6 0 -2 7 9 16 10 8 12 12 4 8 -13 -7
-13 -6 0 11 14 17 15 17 18 1 4 -16 5 -16 19 1z m413 4 c0 8 6 6 16 -7 8 -10
13 -13 9 -6 -12 23 11 12 45 -23 18 -19 38 -31 44 -28 6 4 4 -2 -4 -12 -8 -10
-10 -16 -4 -12 13 8 27 -17 16 -28 -4 -3 -7 -19 -8 -35 -1 -23 3 -28 22 -25
12 1 28 -2 36 -7 9 -7 8 -8 -6 -4 -16 5 -17 4 -7 -8 7 -8 9 -21 5 -27 -4 -8
-3 -9 4 -5 8 5 12 0 12 -13 0 -11 -5 -23 -10 -26 -6 -4 -7 -12 -3 -18 4 -7 6
-22 5 -34 -2 -11 2 -24 9 -29 8 -4 9 -3 5 4 -4 7 -2 12 3 12 11 0 15 -15 12
-34 -1 -5 6 -3 15 5 12 9 15 9 10 2 -4 -8 -2 -13 6 -13 9 0 9 -3 -2 -10 -8 -5
-10 -10 -5 -10 6 0 10 -13 10 -29 0 -16 -3 -27 -7 -25 -3 2 -5 -3 -4 -12 1 -8
9 -20 17 -25 10 -6 8 -9 -11 -9 -23 -1 -23 -2 -6 -11 15 -9 16 -13 5 -20 -12
-7 -12 -9 0 -9 11 0 11 -3 0 -17 -12 -14 -12 -15 0 -9 10 7 12 3 6 -15 -6 -20
-5 -22 6 -11 16 14 33 16 24 2 -3 -5 1 -10 9 -10 8 0 18 -5 22 -12 5 -8 2 -9
-11 -4 -13 5 -15 3 -8 -6 6 -7 11 -21 11 -30 1 -10 2 -30 3 -44 1 -19 4 -22
10 -13 9 15 42 2 39 -15 -1 -5 4 -13 12 -17 10 -7 10 -9 0 -9 -10 0 -10 -5 -1
-21 7 -13 7 -19 1 -15 -6 3 -13 2 -17 -4 -3 -5 1 -10 10 -10 10 0 13 -5 9 -12
-4 -6 -3 -9 2 -5 5 3 20 -1 34 -9 14 -7 21 -13 16 -14 -5 0 -2 -8 5 -17 9 -11
10 -14 2 -10 -7 5 -24 0 -38 -9 -24 -16 -25 -16 -19 1 7 16 5 16 -22 -1 -17
-12 -25 -14 -20 -5 6 9 5 12 -5 9 -8 -3 -14 -13 -14 -24 0 -10 -4 -17 -9 -16
-5 2 -13 -3 -18 -12 -5 -9 -15 -16 -23 -16 -8 0 -17 -5 -21 -12 -4 -7 -3 -8 4
-4 7 4 12 2 12 -3 0 -6 -5 -11 -11 -11 -5 0 -7 -5 -3 -11 4 -7 1 -10 -7 -7 -8
3 -20 -2 -27 -11 -11 -14 -11 -14 -6 1 5 14 0 16 -23 13 -15 -2 -31 -4 -35 -4
-5 -1 -8 -10 -8 -21 0 -12 -7 -20 -17 -20 -14 0 -15 -2 -5 -9 10 -6 9 -10 -7
-14 -14 -3 -19 -1 -14 6 4 7 -1 6 -10 -2 -14 -11 -17 -11 -17 0 0 11 -2 11
-10 -1 -7 -12 -10 -12 -10 -1 0 7 -6 11 -13 8 -15 -6 -17 36 -3 50 6 5 6 2 1
-7 -8 -13 -7 -13 8 -1 9 7 17 10 17 5 0 -4 6 1 14 11 8 11 11 26 8 34 -3 9 -1
12 6 7 8 -5 10 -2 6 8 -3 9 -11 16 -17 16 -6 0 -2 7 9 16 10 8 12 12 4 8 -11
-5 -12 -4 -4 5 6 7 20 13 32 14 11 0 19 4 16 8 -2 4 2 10 8 13 10 5 10 7 1 12
-7 3 -13 10 -13 15 0 6 3 8 8 6 4 -3 7 8 7 24 1 16 -2 29 -5 29 -9 0 -6 32 3
47 4 7 0 17 -10 23 -13 8 -13 10 -2 7 10 -3 15 2 15 19 0 13 -3 24 -6 24 -8 0
-6 37 3 46 3 4 3 12 0 18 -11 17 -12 37 -2 30 5 -3 9 0 9 5 0 6 -5 11 -11 11
-8 0 -8 5 1 15 9 11 9 15 1 15 -9 0 -9 5 0 21 8 15 8 19 0 15 -16 -10 -13 0 5
18 9 9 11 16 4 16 -6 0 -8 6 -4 13 6 9 4 9 -7 0 -20 -20 -72 32 -58 58 7 13 6
19 -1 19 -7 0 -7 7 1 22 9 17 9 23 0 26 -8 3 -6 9 6 18 11 9 13 13 4 12 -7 -2
-16 3 -19 11 -3 10 0 11 9 5 12 -6 12 -5 1 8 -7 9 -22 15 -32 13 -10 -2 -25 4
-32 13 -8 10 -9 13 -1 9 13 -8 13 29 0 50 -4 6 -2 15 4 19 8 5 9 3 4 -7 -5 -8
-4 -11 0 -6 11 9 14 48 4 42 -9 -6 -23 25 -20 43 1 7 -4 12 -11 11 -26 -3 -34
1 -34 20 0 11 3 18 7 15 4 -2 10 3 13 12 5 13 9 14 21 4 12 -10 15 -10 15 1z
m-169 -79 c1 -9 1 -20 0 -24 0 -5 4 -8 10 -8 5 0 7 -6 3 -12 -5 -8 0 -7 11 2
11 9 16 10 11 3 -6 -11 3 -17 24 -15 3 0 6 -8 6 -18 0 -10 -5 -16 -10 -13 -5
4 -7 -1 -3 -9 3 -9 1 -20 -4 -25 -6 -6 -1 -17 12 -29 13 -10 19 -13 15 -6 -7
11 -4 12 12 3 23 -12 37 -41 19 -42 -9 0 -9 -2 1 -6 6 -2 12 -9 12 -14 0 -6
-6 -7 -12 -3 -10 6 -10 4 0 -7 13 -14 17 -33 4 -26 -4 3 -7 -8 -7 -23 -1 -16
2 -27 6 -24 4 2 10 -5 14 -16 3 -11 13 -20 21 -20 10 0 12 -5 8 -12 -5 -8 -1
-8 12 2 10 8 16 11 12 6 -4 -5 -3 -18 3 -29 7 -12 7 -17 1 -13 -5 3 -12 -1
-16 -9 -3 -8 -1 -15 3 -15 11 0 9 -19 -2 -37 -5 -8 -3 -13 5 -13 9 0 9 -3 -2
-10 -12 -8 -12 -10 -1 -10 11 0 11 -3 0 -16 -10 -13 -10 -17 1 -24 11 -7 11
-11 1 -24 -8 -9 -9 -16 -4 -16 5 0 10 -7 10 -15 0 -8 -4 -12 -9 -9 -4 3 -8 0
-8 -5 0 -6 6 -11 13 -12 8 0 8 -2 -2 -6 -11 -5 -11 -7 0 -14 12 -8 11 -11 -1
-20 -12 -8 -12 -12 -2 -16 10 -4 10 -10 -3 -29 -9 -15 -11 -23 -4 -22 7 2 12
-12 13 -35 2 -29 -1 -36 -12 -32 -12 4 -12 2 -3 -8 9 -12 6 -14 -14 -13 -14 0
-25 -3 -26 -9 0 -5 -6 -16 -12 -24 -9 -12 -9 -13 1 -7 6 4 12 2 12 -3 0 -6 -6
-11 -12 -11 -9 0 -8 -3 2 -10 12 -7 12 -12 2 -22 -16 -16 -16 -31 1 -22 6 4 8
3 4 -1 -11 -13 -38 -15 -31 -3 4 6 -5 3 -19 -6 -16 -11 -23 -23 -20 -35 3 -10
-1 -22 -8 -26 -8 -5 -10 -4 -5 3 4 7 2 12 -3 12 -6 0 -11 -6 -12 -12 0 -10 -2
-10 -6 0 -2 6 -10 9 -16 5 -23 -14 -39 -12 -33 4 5 12 3 13 -7 5 -10 -9 -17
-8 -27 1 -9 8 -11 9 -6 0 3 -6 2 -14 -4 -18 -5 -3 -10 -1 -10 4 0 6 -8 11 -17
11 -15 0 -16 2 -3 10 12 8 12 10 -5 10 -17 0 -17 2 -5 10 8 5 11 10 6 10 -5 0
-2 8 5 17 10 11 10 14 2 9 -16 -9 -16 -1 -1 27 10 19 9 21 -4 9 -11 -9 -18
-10 -23 -2 -3 6 -10 8 -15 5 -5 -3 -12 0 -16 6 -5 8 -2 10 7 5 8 -4 6 -1 -3 7
-10 8 -16 16 -13 19 3 2 7 19 9 35 2 25 0 30 -12 25 -10 -3 -13 -1 -8 6 7 11
3 14 -26 16 -21 2 -28 19 -15 35 9 11 9 15 0 18 -8 3 -9 12 -3 29 5 13 6 24 1
24 -4 0 -8 7 -8 15 0 9 6 14 14 11 19 -8 16 0 -8 23 -15 14 -17 21 -8 26 8 6
10 4 4 -5 -5 -9 -4 -11 4 -6 6 4 9 16 6 26 -11 35 -14 61 -6 56 10 -6 8 75 -2
91 -4 6 -3 14 3 18 6 4 8 10 5 14 -2 5 5 17 18 27 21 19 21 19 7 -1 -14 -18
-13 -19 1 -8 9 7 19 10 23 6 4 -4 4 1 0 11 -5 13 -4 17 3 13 14 -9 12 25 -2
35 -6 5 -4 8 5 8 13 0 13 1 0 10 -13 9 -13 11 0 20 12 8 12 10 1 10 -11 0 -11
3 -1 15 9 11 9 15 1 15 -7 0 -9 5 -6 10 4 6 11 8 16 5 5 -4 6 2 2 11 -5 14 -3
16 11 11 11 -5 15 -3 10 5 -5 8 -2 9 9 5 20 -8 22 4 5 22 -7 7 -8 12 -3 11 20
-4 26 0 19 12 -14 23 -11 45 9 57 11 8 16 8 12 2 -3 -6 -4 -11 -1 -11 3 0 12
15 21 33 17 37 64 51 66 19z m-201 -102 c0 -5 -5 -10 -11 -10 -5 0 -7 5 -4 10
3 6 8 10 11 10 2 0 4 -4 4 -10z m-340 -564 c0 -2 -7 -7 -16 -10 -8 -3 -12 -2
-9 4 6 10 25 14 25 6z m-300 -66 c0 -5 -2 -10 -4 -10 -3 0 -8 5 -11 10 -3 6
-1 10 4 10 6 0 11 -4 11 -10z m-240 -59 c0 9 3 9 14 0 9 -8 16 -8 20 -2 5 7
15 7 31 1 18 -7 25 -6 25 2 0 7 7 3 16 -8 8 -10 13 -13 9 -6 -4 7 0 12 9 12 9
0 16 -5 16 -11 0 -5 4 -8 9 -5 5 4 8 -5 7 -18 -2 -14 0 -25 3 -24 26 3 51 -4
46 -12 -3 -5 -2 -10 4 -10 5 0 8 -8 6 -18 -2 -11 3 -19 10 -19 8 0 11 5 8 10
-4 6 -1 7 8 2 32 -21 99 -8 99 18 0 6 -7 2 -15 -9 -14 -18 -15 -17 -4 8 7 15
16 25 20 22 5 -3 9 0 9 7 0 10 3 10 12 1 9 -9 15 -7 25 6 14 16 14 16 9 0 -3
-10 -2 -17 2 -17 4 1 10 0 15 -1 4 -1 13 -3 20 -4 6 -1 11 -7 9 -14 -1 -7 3
-12 9 -12 5 0 8 -4 4 -9 -3 -5 9 -9 27 -8 59 2 85 -14 79 -47 -1 -5 5 -6 12
-3 8 3 20 0 26 -6 8 -8 11 -7 11 3 0 12 2 12 9 2 11 -17 21 -17 32 0 7 10 9 8
10 -7 1 -11 1 -23 0 -27 0 -4 6 -5 14 -2 11 4 13 2 9 -9 -3 -8 -1 -18 5 -22 6
-3 11 -2 11 3 0 5 7 9 15 9 8 0 15 -3 15 -6 0 -3 11 -7 25 -7 15 -1 22 2 18 9
-3 6 -1 7 6 3 9 -6 9 -11 0 -22 -9 -11 -8 -14 4 -14 9 0 19 -5 23 -12 4 -7 3
-8 -4 -4 -18 11 -14 0 5 -15 10 -8 14 -9 10 -2 -5 7 -1 11 10 10 13 0 18 -9
18 -28 1 -15 -2 -27 -5 -27 -21 2 -30 -4 -24 -14 4 -7 -2 -5 -13 5 -14 12 -23
15 -28 8 -3 -6 -14 -11 -23 -11 -15 0 -15 2 -2 10 8 5 10 10 4 10 -5 0 -16 -6
-22 -12 -10 -10 -17 -10 -32 0 -14 9 -20 9 -20 1 0 -8 -6 -7 -17 2 -11 10 -14
10 -9 2 4 -7 3 -13 -3 -13 -5 0 -12 4 -15 9 -9 13 -47 1 -39 -13 3 -6 -3 -2
-15 8 -15 13 -22 15 -22 6 0 -10 -4 -9 -17 1 -11 10 -14 10 -9 2 4 -7 3 -13
-3 -13 -5 0 -12 4 -15 9 -9 13 -47 1 -39 -13 3 -6 -3 -2 -15 8 -15 13 -22 15
-22 6 0 -10 -4 -9 -17 1 -11 10 -14 10 -9 2 9 -16 1 -16 -25 -3 -14 8 -19 7
-19 -1 0 -8 -4 -9 -13 0 -8 6 -18 7 -22 3 -5 -4 -5 -1 -1 6 4 7 2 12 -5 12 -8
0 -8 5 2 18 7 9 9 14 5 10 -5 -4 -15 0 -23 10 -14 16 -14 16 -9 -2 5 -16 4
-17 -8 -7 -8 7 -19 10 -24 8 -4 -3 -14 -2 -22 3 -8 5 -22 5 -32 -1 -13 -7 -18
-6 -19 3 0 10 -2 10 -6 1 -3 -9 -10 -7 -25 7 -12 11 -17 24 -13 31 5 8 4 10
-3 5 -7 -4 -12 -2 -12 5 0 10 -3 10 -12 1 -15 -15 -28 -15 -28 -1 0 5 5 7 12
3 7 -4 8 -3 4 5 -4 6 -13 8 -19 4 -21 -13 -37 -12 -37 3 0 9 -5 12 -12 8 -8
-5 -9 -2 -5 9 3 9 3 16 -1 16 -20 -3 -32 2 -27 11 8 13 -18 8 -27 -5 -5 -6 -8
-5 -8 3 0 6 -5 12 -11 12 -5 0 -7 -6 -3 -12 6 -10 5 -10 -8 -1 -8 7 -18 10
-22 6 -4 -4 -4 1 0 11 5 14 4 17 -4 12 -7 -4 -12 -1 -12 8 0 9 -5 16 -11 16
-5 0 -7 6 -3 13 6 9 5 9 -7 1 -16 -13 -36 1 -33 24 1 6 2 17 3 22 0 6 5 10 11
10 5 0 7 -8 3 -17 -5 -17 -5 -17 8 -2 8 9 23 22 34 29 19 11 19 11 1 5 -19 -6
-19 -5 -1 15 14 16 20 17 27 8 5 -9 8 -8 8 5 0 15 3 16 20 7 15 -8 20 -8 20 1z
m2031 0 c0 8 4 5 9 -6 5 -11 9 -15 9 -8 1 6 13 12 29 12 15 0 39 2 54 4 20 3
25 1 20 -11 -4 -12 -1 -14 12 -9 12 5 16 3 14 -5 -6 -16 14 -37 28 -31 7 2 16
-2 20 -9 12 -18 13 -78 2 -78 -5 0 -6 -4 -3 -10 11 -18 -5 -32 -22 -19 -12 10
-16 10 -24 -2 -5 -8 -9 -9 -9 -4 0 6 -9 11 -19 11 -11 0 -19 -5 -18 -11 1 -5
-7 -9 -18 -7 -16 2 -17 1 -5 -7 12 -8 11 -13 -10 -31 -16 -13 -27 -17 -34 -10
-6 6 -15 5 -25 -3 -12 -9 -13 -9 -7 1 9 14 -3 16 -24 2 -13 -9 -13 -10 0 -10
12 0 13 -2 1 -9 -7 -5 -11 -13 -8 -18 7 -11 -21 -16 -65 -12 -7 1 -22 -2 -32
-7 -13 -5 -17 -4 -12 4 4 7 -2 8 -23 2 -16 -4 -33 -5 -37 -2 -4 4 -4 1 0 -6 5
-8 1 -19 -10 -28 -11 -9 -13 -12 -5 -8 9 5 12 3 7 -4 -4 -7 -27 -12 -52 -12
-28 0 -44 -4 -45 -12 0 -7 -4 -5 -8 6 -7 17 -8 17 -24 2 -16 -16 -17 -16 -18
1 0 11 -3 13 -6 5 -4 -10 -8 -10 -19 -1 -11 9 -14 9 -14 -1 0 -9 -4 -9 -17 1
-11 10 -14 10 -9 2 4 -7 3 -13 -3 -13 -5 0 -12 4 -15 9 -9 13 -47 1 -39 -13 3
-6 -3 -2 -15 8 -15 13 -22 15 -22 6 0 -10 -4 -9 -17 1 -11 10 -14 10 -9 2 9
-16 1 -16 -26 -2 -15 8 -19 8 -14 0 10 -15 -7 -14 -22 1 -9 9 -12 8 -12 -7 0
-16 -2 -17 -9 -6 -5 8 -18 12 -30 8 -12 -3 -24 -1 -27 4 -3 6 -11 5 -20 -2
-11 -9 -14 -8 -14 5 0 9 -5 16 -12 16 -6 0 -4 8 6 19 11 12 25 17 34 14 11 -5
14 -2 9 10 -3 9 -3 16 1 14 4 -1 7 1 7 5 0 4 11 15 24 25 18 12 26 13 29 5 2
-7 8 -12 13 -12 6 0 7 6 3 13 -6 9 -4 9 8 -1 14 -11 19 -9 37 14 12 15 21 34
21 43 0 14 2 14 10 1 5 -8 10 -11 10 -7 0 4 9 3 20 -3 17 -9 19 -8 13 7 -5 14
-3 16 7 6 10 -9 17 -7 33 7 11 10 17 25 14 32 -3 10 5 13 34 11 28 -1 38 2 33
10 -5 9 -4 9 6 0 7 -6 19 -9 27 -6 12 5 12 7 1 14 -10 7 -11 9 0 9 7 0 11 4 7
9 -11 19 31 31 51 16 14 -11 15 -14 5 -15 -11 0 -10 -4 5 -16 10 -8 12 -12 4
-8 -8 4 -11 3 -7 -1 11 -13 38 -15 31 -3 -4 6 6 2 22 -8 15 -11 25 -14 21 -8
-4 7 0 14 8 18 8 3 17 1 20 -5 4 -5 13 -6 22 0 9 4 25 6 36 3 17 -4 19 -1 15
16 -4 13 -1 22 5 22 7 0 5 5 -3 10 -13 9 -13 11 0 20 13 9 13 10 0 11 -10 0
-11 2 -2 6 6 2 10 8 7 13 -3 5 6 7 20 5 14 -1 25 2 25 8 0 5 7 4 15 -3 12 -10
15 -10 16 1z m-1591 -57 c0 -8 -19 -13 -24 -6 -3 5 1 9 9 9 8 0 15 -2 15 -3z
m620 -234 c5 8 11 1 19 -20 9 -28 9 -31 -4 -20 -12 10 -15 10 -15 -2 0 -8 -7
-15 -15 -15 -8 0 -12 4 -9 8 2 4 -1 9 -7 11 -9 3 -8 11 1 28 9 17 15 21 18 11
3 -10 6 -10 12 -1z"/>
<path d="M1550 1526 c0 -11 30 -39 36 -34 2 3 -5 13 -16 23 -11 10 -20 15 -20
11z"/>
<path d="M1495 1480 c3 -5 8 -10 11 -10 2 0 4 5 4 10 0 6 -5 10 -11 10 -5 0
-7 -4 -4 -10z"/>
<path d="M1580 1165 c13 -14 26 -25 28 -25 3 0 -5 11 -18 25 -13 14 -26 25
-28 25 -3 0 5 -11 18 -25z"/>
<path d="M2460 620 c0 -5 5 -10 11 -10 5 0 7 5 4 10 -3 6 -8 10 -11 10 -2 0
-4 -4 -4 -10z"/>
<path d="M1399 1713 c-13 -16 -12 -17 4 -4 9 7 17 15 17 17 0 8 -8 3 -21 -13z"/>
<path d="M1042 1674 c-7 -8 -8 -14 -3 -14 10 0 25 19 20 25 -2 1 -10 -3 -17
-11z"/>
<path d="M1616 1607 c3 -10 9 -15 12 -12 3 3 0 11 -7 18 -10 9 -11 8 -5 -6z"/>
</g>
</svg>
